<svg fill="#F06A6A" role="img" viewBox="0 0 26 24" xmlns="http://www.w3.org/2000/svg"><title>Asana</title><path d="M20.335 12.706c-3.118 0-5.647 2.527-5.647 5.647s2.529 5.647 5.647 5.647 5.647-2.531 5.647-5.647-2.527-5.647-5.647-5.647z m-14.67 0c-3.116 0-5.647 2.528-5.647 5.647s2.529 5.647 5.647 5.647 5.647-2.529 5.647-5.647-2.527-5.647-5.647-5.647z m12.982-7.059c0 3.119-2.528 5.647-5.647 5.647-3.118 0-5.647-2.528-5.647-5.647 0-3.116 2.529-5.647 5.647-5.647 3.119 0 5.647 2.531 5.647 5.647z"/></svg>