<svg fill="#1769FF" role="img" viewBox="0 0 37 24" xmlns="http://www.w3.org/2000/svg"><title>Behance</title><path d="M26.031 19.467a3.882 3.882 0 0 0 2.882 1.026 3.791 3.791 0 0 0 2.32-0.719c0.549-0.356 0.964-0.885 1.181-1.501h3.918a7.716 7.716 0 0 1-2.88 4.389 8.021 8.021 0 0 1-4.685 1.334 8.85 8.85 0 0 1-3.462-0.656 7.383 7.383 0 0 1-2.611-1.836 8.574 8.574 0 0 1-1.637-2.84 10.696 10.696 0 0 1-0.581-3.627c-0.008-1.213 0.196-2.417 0.601-3.56a8.053 8.053 0 0 1 7.711-5.462 7.381 7.381 0 0 1 3.601 0.853c1.002 0.549 1.866 1.319 2.528 2.251a9.397 9.397 0 0 1 1.43 3.232c0.294 1.244 0.399 2.525 0.31 3.802h-11.668c-0.095 1.197 0.279 2.386 1.042 3.314ZM10.842 0.002a12.224 12.224 0 0 1 2.922 0.3 6.502 6.502 0 0 1 2.258 0.967c0.634 0.459 1.134 1.078 1.452 1.792 0.365 0.878 0.541 1.823 0.517 2.773a5.314 5.314 0 0 1-0.767 2.972 5.647 5.647 0 0 1-2.278 1.951 5.438 5.438 0 0 1 3.072 2.178c0.703 1.132 1.056 2.448 1.016 3.78a6.961 6.961 0 0 1-0.642 3.08 5.979 5.979 0 0 1-1.762 2.141 7.751 7.751 0 0 1-2.551 1.223 10.814 10.814 0 0 1-2.922 0.393H0.312V0.002h10.53Zm-0.357 19.552c0.467 0.006 0.934-0.044 1.389-0.15a3.304 3.304 0 0 0 1.161-0.503c0.346-0.239 0.623-0.562 0.809-0.939 0.215-0.48 0.315-1.005 0.29-1.529a3.153 3.153 0 0 0-0.974-2.599 3.968 3.968 0 0 0-2.57-0.766h-5.365v6.486h5.26Zm20.666-9.044a3.228 3.228 0 0 0-2.507-0.938 3.541 3.541 0 0 0-1.762 0.392 3.75 3.75 0 0 0-1.119 0.94 3.575 3.575 0 0 0-0.6 1.2c-0.112 0.362-0.182 0.735-0.208 1.113h7.228a4.909 4.909 0 0 0-1.029-2.706l-0.003-0.001Zm-20.935-0.982a3.416 3.416 0 0 0 2.156-0.656c0.605-0.538 0.92-1.334 0.849-2.142a2.904 2.904 0 0 0-0.27-1.351 1.967 1.967 0 0 0-0.75-0.807 2.805 2.805 0 0 0-1.078-0.416 6.011 6.011 0 0 0-1.265-0.11H5.225v5.503h4.991v-0.021ZM33.081 1.575h-9.058v2.315h9.058V1.575Z"/></svg>