<svg fill="#00A1D6" role="img" viewBox="0 0 27 24" xmlns="http://www.w3.org/2000/svg"><title>Bilibili</title><path d="M20.031 3.745h0.96c1.697 0.061 3.111 0.649 4.239 1.768 1.128 1.118 1.712 2.527 1.753 4.225v8.27c-0.04 1.697-0.625 3.111-1.753 4.239s-2.542 1.712-4.239 1.753H6.009c-1.697-0.04-3.111-0.625-4.239-1.753S0.057 19.706 0.017 18.008v-8.27c0.04-1.698 0.625-3.107 1.753-4.225 1.128-1.119 2.542-1.708 4.239-1.768h0.87l-1.319-1.258a1.387 1.387 0 0 1-0.42-1.018c0-0.4 0.139-0.739 0.42-1.02l0.03-0.03c0.3-0.28 0.644-0.419 1.034-0.419 0.39 0 0.734 0.139 1.033 0.419L10.863 3.506c0.08 0.08 0.151 0.16 0.21 0.239h4.794a0.939 0.939 0 0 1 0.18-0.239l3.206-3.087c0.3-0.28 0.644-0.419 1.034-0.419 0.39 0 0.744 0.17 1.043 0.449 0.3 0.28 0.439 0.619 0.44 1.02 0 0.399-0.139 0.738-0.419 1.018zM6.009 6.652c-0.838 0.02-1.543 0.31-2.112 0.868-0.569 0.56-0.864 1.27-0.884 2.128v8.45c0.019 0.858 0.315 1.567 0.884 2.127 0.57 0.56 1.274 0.849 2.112 0.868h14.982c0.838-0.019 1.543-0.309 2.112-0.868 0.569-0.56 0.864-1.269 0.884-2.127v-8.45c-0.019-0.86-0.315-1.569-0.884-2.128-0.57-0.558-1.274-0.848-2.112-0.868zM9.006 10.997c0.419 0 0.769 0.139 1.048 0.419 0.281 0.28 0.43 0.639 0.449 1.078v1.318c-0.019 0.439-0.169 0.799-0.449 1.079-0.28 0.281-0.629 0.42-1.048 0.42s-0.769-0.14-1.049-0.42c-0.281-0.28-0.43-0.639-0.449-1.079V12.494c0-0.419 0.145-0.774 0.434-1.064 0.29-0.289 0.645-0.434 1.064-0.433z m8.988 0c0.419 0 0.769 0.139 1.049 0.419 0.281 0.28 0.43 0.639 0.449 1.078v1.318c-0.019 0.439-0.169 0.799-0.449 1.079-0.28 0.281-0.629 0.42-1.049 0.42s-0.769-0.14-1.048-0.42c-0.281-0.28-0.43-0.639-0.449-1.079V12.494c0.019-0.439 0.169-0.799 0.449-1.078 0.28-0.28 0.629-0.419 1.048-0.419Z"/></svg>