<svg fill="#F38020" role="img" viewBox="0 0 54 24" xmlns="http://www.w3.org/2000/svg"><title>Cloudflare</title><path d="M36.97 22.713c0.326-1.121 0.201-2.146-0.343-2.909-0.497-0.7-1.337-1.103-2.348-1.151l-19.147-0.248a0.345 0.345 0 0 1-0.295-0.158c-0.063-0.093-0.078-0.218-0.046-0.343 0.061-0.186 0.248-0.328 0.45-0.346l19.317-0.248c2.289-0.108 4.777-1.961 5.647-4.231l1.103-2.878c0.048-0.124 0.065-0.249 0.033-0.371-1.244-5.631-6.269-9.83-12.272-9.83-5.537 0-10.235 3.577-11.914 8.539-1.089-0.809-2.474-1.244-3.967-1.104-2.659 0.263-4.791 2.395-5.055 5.054-0.063 0.685-0.015 1.355 0.141 1.977C3.933 14.589 0.465 18.137 0.465 22.508c0 0.387 0.031 0.777 0.078 1.166 0.031 0.184 0.187 0.326 0.373 0.326h35.339c0.201 0 0.389-0.143 0.45-0.343l0.265-0.944z m6.096-12.302c-0.17 0-0.356 0-0.527 0.025-0.125 0-0.233 0.092-0.281 0.215l-0.747 2.597c-0.326 1.121-0.203 2.146 0.342 2.911 0.499 0.7 1.339 1.101 2.349 1.149l4.077 0.25c0.123 0 0.233 0.058 0.294 0.156 0.063 0.095 0.078 0.237 0.047 0.345-0.063 0.186-0.25 0.328-0.451 0.344l-4.248 0.248c-2.302 0.108-4.772 1.961-5.645 4.232l-0.31 0.793c-0.063 0.158 0.048 0.313 0.218 0.313h14.589c0.17 0 0.326-0.108 0.373-0.278 0.248-0.903 0.389-1.851 0.389-2.832 0-5.755-4.699-10.453-10.469-10.452"/></svg>