<svg fill="#5786FE" role="img" viewBox="0 0 33 24" xmlns="http://www.w3.org/2000/svg"><title>DeepSeek</title><path d="M32.464 2.014c-0.345-0.169-0.495 0.154-0.696 0.316-0.069 0.054-0.128 0.122-0.186 0.186-0.506 0.539-1.095 0.893-1.866 0.851-1.127-0.063-2.089 0.291-2.939 1.152-0.181-1.063-0.781-1.696-1.695-2.103-0.478-0.211-0.962-0.423-1.297-0.883-0.234-0.326-0.298-0.692-0.415-1.052-0.075-0.217-0.149-0.439-0.398-0.476-0.272-0.042-0.378 0.185-0.484 0.375-0.425 0.777-0.59 1.633-0.573 2.501 0.037 1.951 0.86 3.506 2.498 4.61 0.186 0.128 0.234 0.254 0.175 0.439-0.111 0.38-0.245 0.751-0.362 1.132-0.075 0.243-0.186 0.296-0.445 0.19a7.474 7.474 0 0 1-2.361-1.602c-1.165-1.125-2.216-2.369-3.529-3.343a16.307 16.307 0 0 0-0.936-0.638c-1.339-1.3 0.177-2.369 0.526-2.495 0.367-0.133 0.128-0.588-1.057-0.582-1.185 0.004-2.269 0.401-3.652 0.931a4.077 4.077 0 0 1-0.632 0.185 13.046 13.046 0 0 0-3.918-0.137c-2.562 0.285-4.607 1.495-6.111 3.563C0.304 7.619-0.121 10.443 0.399 13.386c0.548 3.104 2.131 5.673 4.566 7.682 2.523 2.083 5.432 3.104 8.749 2.908 2.014-0.116 4.256-0.386 6.786-2.527 0.639 0.318 1.307 0.446 2.419 0.541 0.855 0.079 1.678-0.042 2.317-0.176 0.999-0.211 0.929-1.136 0.568-1.306-2.928-1.364-2.286-0.809-2.87-1.258 1.488-1.76 3.761-4.889 4.463-9.15 0.068-0.47 0.156-1.133 0.146-1.513-0.005-0.232 0.048-0.323 0.313-0.35a5.707 5.707 0 0 0 2.1-0.645c1.898-1.037 2.663-2.74 2.844-4.779 0.027-0.313-0.005-0.635-0.336-0.799M15.929 20.382c-2.837-2.231-4.214-2.967-4.784-2.935-0.53 0.033-0.435 0.641-0.317 1.037 0.122 0.391 0.281 0.662 0.504 1.005 0.155 0.227 0.261 0.565-0.154 0.82-0.915 0.565-2.503-0.19-2.578-0.229-1.849-1.088-3.397-2.528-4.486-4.492-1.053-1.893-1.665-3.925-1.765-6.091-0.027-0.523 0.128-0.709 0.648-0.804a6.387 6.387 0 0 1 2.08-0.052c2.896 0.423 5.362 1.718 7.429 3.77 1.18 1.169 2.072 2.564 2.992 3.927 0.978 1.449 2.03 2.829 3.37 3.961 0.473 0.395 0.851 0.697 1.212 0.92-1.09 0.122-2.908 0.148-4.151-0.836z m1.36-8.751a0.416 0.416 0 0 1 0.564-0.39 0.408 0.408 0 0 1 0.154 0.1 0.408 0.408 0 0 1 0.117 0.291c0 0.231-0.185 0.417-0.419 0.417a0.412 0.412 0 0 1-0.416-0.417m4.226 2.169c-0.272 0.11-0.544 0.205-0.803 0.217a1.699 1.699 0 0 1-1.084-0.345c-0.372-0.313-0.639-0.486-0.749-1.03a2.31 2.31 0 0 1 0.02-0.799c0.095-0.444-0.01-0.73-0.323-0.988-0.255-0.212-0.579-0.27-0.936-0.27a0.815 0.815 0 0 1-0.345-0.106 0.344 0.344 0 0 1-0.155-0.487 1.359 1.359 0 0 1 0.261-0.285c0.484-0.275 1.042-0.185 1.557 0.021 0.478 0.196 0.84 0.554 1.36 1.063 0.533 0.613 0.628 0.783 0.931 1.244 0.239 0.359 0.457 0.728 0.606 1.152 0.09 0.264-0.027 0.48-0.34 0.611"/></svg>