<svg fill="#5865F2" role="img" viewBox="0 0 32 24" xmlns="http://www.w3.org/2000/svg"><title>Discord</title><path d="M26.912 1.99a25.965 25.965 0 0 0-6.41-1.988 0.097 0.097 0 0 0-0.103 0.048c-0.277 0.492-0.583 1.135-0.798 1.64-2.42-0.362-4.828-0.362-7.198 0-0.215-0.516-0.532-1.147-0.81-1.64a0.101 0.101 0 0 0-0.103-0.048 25.893 25.893 0 0 0-6.41 1.987 0.092 0.092 0 0 0-0.042 0.037C0.956 8.124-0.162 14.073 0.387 19.948a0.108 0.108 0 0 0 0.041 0.073c2.693 1.978 5.302 3.179 7.862 3.975a0.102 0.102 0 0 0 0.11-0.037c0.606-0.827 1.145-1.699 1.609-2.616a0.1 0.1 0 0 0-0.055-0.139c-0.856-0.325-1.672-0.721-2.456-1.17a0.101 0.101 0 0 1-0.01-0.168c0.165-0.124 0.33-0.252 0.488-0.382a0.097 0.097 0 0 1 0.102-0.014c5.153 2.353 10.732 2.353 15.824 0a0.097 0.097 0 0 1 0.103 0.013c0.158 0.13 0.323 0.26 0.489 0.383a0.101 0.101 0 0 1-0.009 0.168 16.135 16.135 0 0 1-2.457 1.169 0.1 0.1 0 0 0-0.054 0.14c0.473 0.916 1.013 1.788 1.608 2.615a0.1 0.1 0 0 0 0.11 0.038c2.573-0.796 5.182-1.997 7.875-3.975a0.101 0.101 0 0 0 0.041-0.072c0.657-6.792-1.1-12.692-4.656-17.922a0.08 0.08 0 0 0-0.04-0.038zM10.778 16.37c-1.551 0-2.83-1.424-2.829-3.173 0-1.749 1.254-3.173 2.83-3.174 1.589 0 2.854 1.437 2.829 3.174 0 1.749-1.254 3.173-2.83 3.173z m10.463 0c-1.551 0-2.83-1.424-2.83-3.173 0-1.749 1.253-3.173 2.83-3.174 1.589 0 2.854 1.437 2.83 3.174 0 1.749-1.241 3.173-2.83 3.173Z"/></svg>