<svg fill="#0866FF" role="img" viewBox="0 0 25 24" xmlns="http://www.w3.org/2000/svg"><title>Facebook</title><path d="M9.59 23.734v-8.009H7.107v-3.681h2.483v-1.586c0-4.1 1.855-6 5.88-6 0.402 0 0.959 0.042 1.473 0.104a8.712 8.712 0 0 1 1.145 0.195v3.338a8.655 8.655 0 0 0-0.655-0.036 26.904 26.904 0 0 0-0.736-0.009c-0.71 0-1.264 0.096-1.681 0.31a1.692 1.692 0 0 0-0.681 0.624c-0.259 0.422-0.375 0.999-0.376 1.758v1.302h3.934l-0.388 2.111-0.288 1.57h-3.258v8.275C19.923 23.279 24.544 18.202 24.544 12.044c0-6.651-5.393-12.044-12.044-12.044s-12.044 5.393-12.044 12.044c0 5.649 3.888 10.388 9.134 11.69Z"/></svg>