<svg fill="#FC6D26" role="img" viewBox="0 0 25 24" xmlns="http://www.w3.org/2000/svg"><title>GitLab</title><path d="M24.547 9.501l-0.035-0.09L21.12 0.558a0.884 0.884 0 0 0-0.349-0.42 0.908 0.908 0 0 0-1.039 0.056 0.908 0.908 0 0 0-0.301 0.457l-2.29 7.007H7.867l-2.291-7.007a0.89 0.89 0 0 0-0.301-0.459 0.908 0.908 0 0 0-1.038-0.055 0.892 0.892 0 0 0-0.349 0.42L0.489 9.406l-0.034 0.089a6.299 6.299 0 0 0 2.09 7.28l0.011 0.01 0.031 0.022 5.168 3.869 2.556 1.935 1.558 1.176a1.047 1.047 0 0 0 1.266 0l1.557-1.176 2.557-1.935 5.198-3.893 0.013-0.01a6.301 6.301 0 0 0 2.087-7.272z"/></svg>