<svg fill="#4285F4" role="img" viewBox="0 0 28 24" xmlns="http://www.w3.org/2000/svg"><title>Google Drive</title><path d="M14.011 0c-2.376 0-4.284 0.023-4.271 0.054 0.011 0.023 1.949 3.425 4.307 7.555l4.291 7.502h4.291c2.375 0 4.283-0.023 4.27-0.054-0.006-0.023-1.949-3.425-4.308-7.555l-4.291-7.502z m-5.432 1.974a901.411 901.373 90 0 0-4.142 7.212L0.305 16.414l2.157 3.764 2.151 3.763 4.132-7.23 4.129-7.224-2.146-3.751C9.549 3.674 8.585 1.98 8.579 1.973z m2.578 14.44l-0.231 0.397c-0.13 0.226-1.096 1.908-2.146 3.752a483.821 483.8 90 0 1-1.938 3.389c-0.011 0.03 3.698 0.048 8.242 0.048h8.267l2.05-3.603c1.132-1.979 2.111-3.686 2.175-3.792l0.119-0.191h-8.273z"/></svg>