<svg fill="#4285F4" role="img" viewBox="0 0 25 24" xmlns="http://www.w3.org/2000/svg"><title>Google Calendar</title><path d="M18.816 5.684H24.5v12.632h-5.684V5.684zM6.184 24h12.632v-5.684H6.184V24zM18.816 5.684V0H2.395A1.894 1.894 0 0 0 0.5 1.895v16.421h5.684V5.684h12.632z m-7.207 6.25v-0.065c0.272-0.144 0.5-0.349 0.687-0.617s0.279-0.595 0.279-0.982c0-0.379-0.099-0.72-0.3-1.025a2.05 2.05 0 0 0-0.832-0.714 2.703 2.703 0 0 0-1.197-0.257c-0.6 0-1.094 0.156-1.481 0.467-0.386 0.311-0.65 0.671-0.793 1.078l1.085 0.452c0.086-0.249 0.224-0.461 0.413-0.633 0.189-0.172 0.445-0.257 0.767-0.257 0.33 0 0.602 0.088 0.816 0.264a0.86 0.86 0 0 1 0.322 0.703c0 0.33-0.12 0.589-0.36 0.778-0.24 0.19-0.535 0.284-0.886 0.284h-0.567v1.085h0.633c0.407 0 0.748 0.109 1.02 0.327 0.272 0.218 0.407 0.499 0.407 0.843 0 0.336-0.129 0.614-0.387 0.832s-0.565 0.327-0.924 0.327c-0.351 0-0.651-0.103-0.897-0.311-0.248-0.208-0.422-0.502-0.521-0.881l-1.096 0.452c0.178 0.616 0.505 1.082 0.977 1.401 0.472 0.319 0.984 0.478 1.538 0.477a2.84 2.84 0 0 0 1.293-0.291c0.382-0.193 0.684-0.458 0.902-0.794 0.218-0.336 0.327-0.72 0.327-1.149 0-0.429-0.115-0.797-0.344-1.105a2.067 2.067 0 0 0-0.881-0.689z m2.093-1.931l0.602 0.913L15.5 10.045v5.744h1.187V8.446h-0.827l-2.158 1.557zM22.605 0h-3.289v5.184H24.5V1.895A1.894 1.894 0 0 0 22.605 0z m-3.289 23.5l4.684-4.684h-4.684V23.5zM0.5 22.105C0.5 23.152 1.348 24 2.395 24h3.289v-5.184H0.5v3.289z"/></svg>