<svg fill="#FFD21E" role="img" viewBox="0 0 27 24" xmlns="http://www.w3.org/2000/svg"><title>Hugging Face</title><path d="M13.528 0c-6.371 0-11.537 5.131-11.536 11.458 0 1.228 0.197 2.408 0.555 3.517 0.071-0.245 0.224-0.49 0.459-0.637a1.06 1.06 0 0 1 0.579-0.166c0.323 0 0.645 0.137 0.927 0.314 0.307 0.191 0.53 0.45 0.784 0.766 0.25 0.311 0.506 0.675 0.755 1.05v-0.016c0.019-0.358 0.117-0.687 0.292-0.965s0.445-0.538 0.841-0.599c0.331-0.052 0.658 0.066 0.869 0.224s0.342 0.346 0.442 0.516c0.166 0.284 0.234 0.517 0.257 0.598 0.011 0.029 0.721 1.714 1.829 2.804 0.68 0.668 1.115 1.35 1.195 2.111 0.061 0.593-0.106 1.169-0.42 1.736 0.703 0.134 1.429 0.206 2.172 0.206 0.725 0 1.433-0.07 2.121-0.196-0.317-0.571-0.486-1.149-0.424-1.746 0.077-0.762 0.513-1.443 1.194-2.112 1.108-1.09 1.818-2.775 1.829-2.803 0.023-0.082 0.092-0.315 0.257-0.598 0.099-0.17 0.23-0.357 0.442-0.516a1.192 1.192 0 0 1 0.869-0.224c0.396 0.062 0.667 0.32 0.841 0.599s0.273 0.607 0.293 0.965v0.017c0.248-0.375 0.505-0.74 0.754-1.051 0.254-0.316 0.477-0.574 0.784-0.766 0.284-0.177 0.604-0.314 0.927-0.315a1.071 1.071 0 0 1 0.579 0.167c0.252 0.158 0.412 0.428 0.475 0.69l0.006 0.044a11.372 11.372 0 0 0 0.59-3.614c0-6.327-5.165-11.458-11.537-11.458M9.445 6.021a1.656 1.656 0 0 1 0.787 0.192 1.642 1.642 0 0 1 0.682 2.222c-0.202 0.379-0.841-0.236-1.217-0.104-0.42 0.148-0.587 1.009-1.012 0.784a1.642 1.642 0 0 1 0.761-3.094m8.266 0a1.642 1.642 0 0 1 0.76 3.094c-0.425 0.225-0.592-0.636-1.011-0.784-0.375-0.132-1.016 0.482-1.218 0.104a1.642 1.642 0 0 1 0.681-2.222 1.656 1.656 0 0 1 0.788-0.192m-11.792 1.711a1.06 1.06 0 1 1 0 2.121 1.06 1.06 0 0 1 0-2.12m15.278 0a1.06 1.06 0 1 1 0 2.12 1.06 1.06 0 0 1 0-2.12M9.624 11.403c0.649 0.011 2.17 1.277 3.944 1.285 1.774-0.008 3.295-1.275 3.944-1.285 0.216-0.003 0.337 0.132 0.336 0.501 0 0.978-0.468 2.57-1.725 3.535-0.243-0.835-1.541-1.508-1.8-1.457q-0.012 0.001-0.022 0.007l-0.049 0.028-0.011 0.009-0.033 0.027q-0.02 0.019-0.038 0.04l-0.036 0.044a1.104 1.104 0 0 0-0.064 0.099l-0.015 0.028q-0.054 0.097-0.122 0.209a1.104 1.104 0 0 1-0.091 0.128 1.325 1.325 0 0 1-0.191 0.199q-0.039 0.032-0.083 0.064a1.435 1.435 0 0 1-0.277-0.268 1.104 1.104 0 0 1-0.084-0.118c-0.137-0.213-0.195-0.401-0.372-0.49-0.038-0.018-0.115-0.009-0.221 0.024q-0.104 0.033-0.239 0.096-0.066 0.031-0.138 0.07l-0.143 0.081q-0.074 0.044-0.15 0.095a3.312 3.312 0 0 0-0.149 0.106 3.312 3.312 0 0 0-0.287 0.242 2.208 2.208 0 0 0-0.133 0.134 2.208 2.208 0 0 0-0.117 0.141l-0.002 0.002a2.208 2.208 0 0 0-0.099 0.146l-0.002 0.001a1.325 1.325 0 0 0-0.115 0.234q-0.014 0.04-0.027 0.081c-1.258-0.966-1.726-2.558-1.726-3.537 0-0.369 0.12-0.505 0.337-0.501m0.923 11.432c0.91-1.314 0.846-2.299-0.403-3.527-1.248-1.228-1.975-3.023-1.975-3.023s-0.272-1.043-0.89-0.947-1.071 1.655 0.223 2.608c1.295 0.954-0.257 1.601-0.756 0.706-0.497-0.897-1.858-3.197-2.564-3.638s-1.202-0.193-1.036 0.715 3.116 3.106 2.829 3.581-1.298-0.559-1.298-0.558-3.164-2.834-3.854-2.096 0.522 1.358 2.249 2.385c1.727 1.029 1.861 1.301 1.617 1.689s-4.058-2.772-4.416-1.432c-0.357 1.34 3.891 1.73 3.629 2.656-0.263 0.926-2.992-1.752-3.551-0.709-0.559 1.044 3.853 2.27 3.889 2.279 1.424 0.364 5.043 1.135 6.307-0.689m5.906 0c-0.91-1.314-0.846-2.299 0.403-3.527 1.248-1.228 1.975-3.023 1.975-3.023s0.272-1.043 0.89-0.947 1.071 1.655-0.223 2.608c-1.295 0.954 0.257 1.601 0.756 0.706 0.498-0.897 1.858-3.197 2.564-3.638s1.202-0.193 1.036 0.715-3.116 3.106-2.829 3.581 1.298-0.559 1.298-0.558 3.164-2.834 3.854-2.096-0.522 1.358-2.249 2.385c-1.727 1.029-1.861 1.301-1.617 1.689s4.058-2.772 4.416-1.432c0.357 1.34-3.891 1.73-3.629 2.656 0.263 0.926 2.992-1.752 3.551-0.709 0.559 1.044-3.853 2.27-3.889 2.279-1.424 0.364-5.043 1.135-6.307-0.689"/></svg>