<svg fill="#EA4B71" role="img" viewBox="0 0 46 24" xmlns="http://www.w3.org/2000/svg"><title>n8n</title><path d="M41 0c-2.237 0-4.116 1.53-4.649 3.6h-5.501c-2.346 0-4.349 1.697-4.735 4.011l-0.197 1.184a2.4 2.4 0 0 1-2.368 2.005H21.649c-0.533-2.07-2.412-3.6-4.649-3.6s-4.116 1.53-4.649 3.6H9.649c-0.533-2.07-2.412-3.6-4.649-3.6C2.349 7.2 0.2 9.349 0.2 12s2.149 4.8 4.8 4.8c2.237 0 4.116-1.53 4.649-3.6h2.702c0.533 2.07 2.412 3.6 4.649 3.6 2.237 0 4.116-1.53 4.649-3.6h1.901a2.4 2.4 0 0 1 2.368 2.005l0.197 1.184c0.386 2.314 2.388 4.011 4.735 4.011h0.701c0.533 2.07 2.412 3.6 4.649 3.6 2.651 0 4.8-2.149 4.8-4.8s-2.149-4.8-4.8-4.8c-2.237 0-4.116 1.529-4.649 3.6h-0.701a2.4 2.4 0 0 1-2.368-2.005l-0.197-1.184A4.788 4.788 0 0 0 26.725 12a4.788 4.788 0 0 0 1.56-2.811l0.197-1.184a2.4 2.4 0 0 1 2.368-2.005h5.501c0.533 2.07 2.412 3.6 4.649 3.6 2.651 0 4.8-2.149 4.8-4.8s-2.149-4.8-4.8-4.8m0 2.4a2.4 2.4 0 0 1 2.4 2.4 2.4 2.4 0 0 1-2.4 2.4 2.4 2.4 0 0 1-2.4-2.4 2.4 2.4 0 0 1 2.4-2.4M5 9.6A2.4 2.4 0 0 1 7.4 12a2.4 2.4 0 0 1-2.4 2.4A2.4 2.4 0 0 1 2.6 12a2.4 2.4 0 0 1 2.4-2.4m12 0A2.4 2.4 0 0 1 19.4 12a2.4 2.4 0 0 1-2.4 2.4A2.4 2.4 0 0 1 14.6 12a2.4 2.4 0 0 1 2.4-2.4m19.2 7.2a2.4 2.4 0 0 1 2.4 2.4 2.4 2.4 0 0 1-2.4 2.4 2.4 2.4 0 0 1-2.4-2.4 2.4 2.4 0 0 1 2.4-2.4"/></svg>