<svg fill="#1FB8CD" role="img" viewBox="0 0 21 24" xmlns="http://www.w3.org/2000/svg"><title>Perplexity</title><path d="M20.898 7.09h-2.311V0.068l-7.509 6.354V0.158h-1.156v6.196L2.99 0v7.09H0.102v10.397h2.888V24l6.932-6.359v6.2h1.156v-6.046l6.932 6.18v-6.488h2.888V7.09z m-3.466-4.531v4.531h-5.355l5.355-4.531z m-13.286 0.067l4.869 4.464H4.146V2.626zM1.257 16.332V8.245h7.848l-6.115 6.115v1.972H1.257z m2.889 5.04v-3.885h0v-2.649l5.776-5.776v7.011l-5.776 5.299z m12.708 0.025l-5.776-5.151V9.062l5.776 5.776v6.559z m2.889-5.065h-1.733v-1.972L11.895 8.245h7.848v8.087z"/></svg>