<svg fill="#5D5CDE" role="img" viewBox="0 0 32 24" xmlns="http://www.w3.org/2000/svg"><title>Poe</title><path d="M31.689 12.67V7.241c0-1.161-0.937-2.102-2.096-2.112h-0.017c-0.651-0.012-1.561-0.161-2.207-0.809-0.575-0.574-0.764-1.532-0.813-2.331l-0.001 0.004c-0.003-0.018-0.003-0.039-0.004-0.058l-0.001-0.039a2.113 2.113 0 0 0-2.101-1.896H7.554a2.079 2.079 0 0 0-0.214 0.01l-0.072 0.012c-0.044 0.005-0.089 0.01-0.134 0.02l-0.09 0.022c-0.037 0.01-0.073 0.017-0.108 0.029-0.031 0.009-0.059 0.02-0.092 0.031-0.034 0.013-0.069 0.024-0.104 0.039-0.027 0.01-0.055 0.026-0.083 0.038-0.035 0.017-0.071 0.031-0.104 0.05l-0.078 0.044c-0.033 0.02-0.068 0.039-0.1 0.062a1.264 1.264 0 0 0-0.08 0.059c-0.027 0.02-0.058 0.039-0.085 0.065a1.582 1.582 0 0 0-0.129 0.118c-0.008 0.007-0.017 0.013-0.024 0.021l-0.018 0.021a2.079 2.079 0 0 0-0.123 0.133c-0.022 0.026-0.039 0.055-0.06 0.081-0.021 0.027-0.043 0.055-0.062 0.082l-0.059 0.097-0.048 0.081-0.047 0.1a0.892 0.892 0 0 0-0.076 0.187l-0.035 0.098-0.026 0.096a1.011 1.011 0 0 0-0.024 0.102c-0.008 0.039-0.012 0.076-0.017 0.115-0.004 0.029-0.01 0.059-0.013 0.091-0.004 0.029-0.004 0.059-0.005 0.089l-0.003-0.003c-0.047 0.798-0.238 1.758-0.81 2.332-0.648 0.647-1.557 0.798-2.21 0.808h-0.016c-0.065 0-0.131 0.004-0.192 0.009a1.66 1.66 0 0 0-0.094 0.016c-0.038 0.005-0.075 0.009-0.11 0.016l-0.107 0.026-0.094 0.024c-0.034 0.012-0.068 0.025-0.103 0.035-0.031 0.012-0.063 0.021-0.092 0.034-0.031 0.013-0.063 0.029-0.094 0.044a1.003 1.003 0 0 0-0.094 0.043l-0.089 0.053-0.089 0.053a1.606 1.606 0 0 0-0.094 0.071c-0.024 0.018-0.048 0.034-0.069 0.052a2.127 2.127 0 0 0-0.296 0.297c-0.02 0.021-0.035 0.047-0.053 0.069a1.828 1.828 0 0 0-0.071 0.097c-0.021 0.029-0.037 0.059-0.054 0.088L0.559 6.247c-0.016 0.03-0.029 0.061-0.043 0.091l-0.044 0.096c-0.013 0.031-0.022 0.06-0.034 0.091-0.013 0.035-0.026 0.069-0.036 0.105-0.009 0.03-0.016 0.061-0.023 0.093l-0.026 0.107-0.016 0.11c-0.004 0.031-0.012 0.063-0.013 0.094-0.009 0.068-0.013 0.139-0.013 0.209v5.429c0 1.161 0.937 2.104 2.096 2.112h0.013c0.654 0.01 1.564 0.161 2.209 0.808 0.562 0.562 0.754 1.494 0.808 2.283v5.4c0 0.685 0.863 0.986 1.289 0.452l3.051-3.818h14.669c1.126 0 2.044-0.883 2.106-1.992l0.002 0.004c0.048-0.798 0.239-1.757 0.813-2.331 0.647-0.648 1.556-0.798 2.208-0.81h0.016c0.058 0 0.115-0.004 0.172-0.009l0.029-0.001A2.109 2.109 0 0 0 31.689 12.67z m-5.033 2.21c-0.656 0.658-1.589 0.801-2.245 0.809H7.588c-0.655-0.008-1.589-0.149-2.245-0.808-0.533-0.535-0.739-1.46-0.808-2.28V7.312c0.068-0.82 0.273-1.748 0.808-2.281 0.658-0.658 1.59-0.801 2.245-0.809h16.823c0.656 0.008 1.59 0.15 2.246 0.809 0.535 0.536 0.737 1.46 0.808 2.28v5.283c-0.068 0.824-0.273 1.751-0.808 2.287zM11.325 6.757c-1.166 0-2.111 0.945-2.112 2.111v2.113a2.111 2.111 0 1 0 4.223 0V8.867c0-1.166-0.945-2.111-2.111-2.112Zm9.353 0c-1.168 0-2.113 0.945-2.113 2.111v2.113a2.111 2.111 0 1 0 4.224 0V8.867c0-1.166-0.945-2.111-2.111-2.112z"/></svg>