<svg fill="#635BFF" role="img" viewBox="0 0 18 24" xmlns="http://www.w3.org/2000/svg"><title>Stripe</title><path d="M10.976 9.15c-2.172-0.806-3.356-1.426-3.357-2.409 0-0.831 0.683-1.305 1.901-1.305 2.227 0 4.515 0.858 6.09 1.631l0.89-5.494C15.251 0.975 12.696 0 9.164 0 6.666 0 4.588 0.654 3.103 1.872 1.559 3.147 0.756 4.992 0.756 7.218c0 4.039 2.467 5.76 6.476 7.219 2.585 0.92 3.445 1.574 3.445 2.583 0 0.98-0.84 1.545-2.354 1.545-1.875 0-4.965-0.921-6.99-2.109l-0.9 5.555C2.174 22.99 5.384 24 8.713 24c2.641 0 4.843-0.624 6.329-1.813 1.664-1.305 2.525-3.236 2.525-5.732 0-4.128-2.524-5.851-6.594-7.305h0.003z"/></svg>