<svg fill="#07C160" role="img" viewBox="0 0 30 24" xmlns="http://www.w3.org/2000/svg"><title>WeChat</title><path d="M10.953 0C5.083 0 0.324 4.021 0.324 8.979c0 2.705 1.431 5.14 3.672 6.788a0.722 0.722 0 0 1 0.26 0.813l-0.477 1.81c-0.023 0.086-0.059 0.172-0.059 0.261 0 0.199 0.159 0.361 0.355 0.36a0.399 0.399 0 0 0 0.204-0.066l2.328-1.362a1.057 1.057 0 0 1 0.876-0.12 12.426 12.426 0 0 0 3.47 0.493c0.338 0 0.664-0.033 0.992-0.061-1.048-3.153 0.192-6.081 2.363-7.884 2.083-1.731 4.748-2.422 7.158-2.247-0.704-4.382-5.132-7.764-10.513-7.764zM7.399 4.651c0.785 0 1.421 0.647 1.421 1.443a1.431 1.431 0 0 1-1.421 1.441A1.431 1.431 0 0 1 5.978 6.093c0-0.796 0.636-1.443 1.421-1.443z m7.109 0c0.785 0 1.421 0.647 1.421 1.443a1.431 1.431 0 0 1-1.421 1.441 1.431 1.431 0 0 1-1.421-1.441c0-0.796 0.636-1.443 1.421-1.443z m6.531 3.506c-2.198-0.064-4.581 0.626-6.457 2.185-2.104 1.746-3.286 4.55-2.177 7.607 1.152 3 4.483 5.172 8.419 5.172 1.01 0 1.984-0.147 2.887-0.411a0.883 0.883 0 0 1 0.732 0.1l1.937 1.133a0.333 0.333 0 0 0 0.171 0.057c0.164 0 0.294-0.136 0.294-0.302 0-0.073-0.028-0.147-0.047-0.217l-0.4-1.507a0.712 0.712 0 0 1-0.028-0.191 0.599 0.599 0 0 1 0.246-0.487C28.482 19.925 29.676 17.895 29.676 15.645c0-3.926-3.585-7.139-8.14-7.446V8.196c-0.165-0.012-0.33-0.033-0.498-0.036z m-3.094 4.004c0.654 0 1.185 0.538 1.185 1.201a1.194 1.194 0 0 1-1.185 1.203 1.194 1.194 0 0 1-1.185-1.203c0-0.663 0.531-1.201 1.186-1.201z m5.924 0c0.654 0 1.185 0.538 1.185 1.201a1.194 1.194 0 0 1-1.185 1.203 1.194 1.194 0 0 1-1.185-1.203c0-0.663 0.531-1.201 1.185-1.201z"/></svg>