<svg fill="#000000" role="img" viewBox="0 0 38 24" xmlns="http://www.w3.org/2000/svg"><title>Wikipedia</title><path d="M19.142 13.762c-1.475 3.045-3.494 7.168-4.497 9.029-0.971 1.693-1.776 1.467-2.415 0.045-2.216-5.234-6.766-14.412-8.906-19.558-0.396-0.947-0.695-1.556-0.976-1.796-0.285-0.236-0.873-0.378-1.769-0.427C0.248 1.017 0.086 0.937 0.086 0.805v-0.717l0.082-0.071c1.456-0.008 8.513 0 8.513 0l0.08 0.071v0.684c0 0.188-0.118 0.277-0.354 0.277l-0.889 0.049c-0.764 0.046-1.146 0.258-1.146 0.687 0 0.213 0.084 0.52 0.261 0.947 1.705 4.171 7.594 16.583 7.594 16.583l0.215 0.073 3.8-7.582-0.76-1.681-2.613-5.145s-0.501-1.031-0.675-1.374c-1.147-2.274-1.122-2.393-2.28-2.549-0.326-0.036-0.493-0.079-0.494-0.235v-0.738l0.095-0.071h6.765l0.178 0.059v0.711c0 0.165-0.12 0.236-0.358 0.236l-0.485 0.074c-1.248 0.096-1.042 0.601-0.215 2.241l2.494 5.126 2.771-5.523c0.462-1.009 0.367-1.263 0.175-1.492-0.11-0.132-0.481-0.347-1.28-0.379l-0.317-0.033c-0.082 0-0.154-0.024-0.229-0.08-0.071-0.049-0.106-0.12-0.105-0.203v-0.673l0.096-0.071c1.965-0.013 6.372 0 6.372 0l0.093 0.071v0.687c0 0.191-0.093 0.281-0.304 0.28-1.018 0.047-1.233 0.15-1.612 0.692-0.189 0.293-0.591 0.928-1.019 1.638l-3.626 6.735-0.103 0.213 4.401 9.003 0.268 0.075 6.929-16.452c0.243-0.665 0.203-1.138-0.101-1.41-0.311-0.271-0.545-0.43-1.351-0.465l-0.662-0.026c-0.096 0-0.165-0.022-0.24-0.07-0.068-0.046-0.113-0.118-0.113-0.188v-0.687l0.093-0.071h7.819l0.065 0.071v0.689c0 0.188-0.117 0.284-0.329 0.283-1.021 0.047-1.776 0.284-2.275 0.664-0.495 0.402-0.878 0.971-1.16 1.682 0 0-6.372 14.592-8.552 19.448-0.827 1.587-1.66 1.445-2.369-0.049-0.9-1.846-2.795-5.967-4.171-9l0.084-0.057z"/></svg>