<svg fill="#0B100F" role="img" viewBox="0 0 42 24" xmlns="http://www.w3.org/2000/svg"><title>Windsurf</title><path d="M40.981 0.006c-2.082-0.003-3.772 1.683-3.773 3.766v8.42c0 1.681-1.39 3.044-3.044 3.044-0.983 0-1.964-0.495-2.546-1.325l-8.6-12.283c-0.714-1.02-1.875-1.628-3.132-1.628-1.961 0-3.725 1.667-3.725 3.725v8.469c0 1.681-1.379 3.044-3.044 3.043-0.986 0-1.966-0.495-2.548-1.324L0.946 0.167C0.729-0.144 0.241 0.01 0.241 0.389v7.344c0 0.371 0.113 0.731 0.326 1.036l9.471 13.525c0.559 0.799 1.385 1.393 2.337 1.609 2.382 0.541 4.575-1.292 4.575-3.629v-8.465c0-1.681 1.362-3.043 3.044-3.043h0.005a3.11 3.11 0 0 1 2.546 1.325l8.602 12.281c0.715 1.022 1.816 1.628 3.13 1.628 2.004 0 3.722-1.669 3.721-3.725v-8.467c0-1.681 1.362-3.044 3.044-3.044h0.336a0.381 0.381 0 0 0 0.381-0.381v-7.995a0.381 0.381 0 0 0-0.381-0.382Z"/></svg>