<svg fill="#FF0000" role="img" viewBox="0 0 35 24" xmlns="http://www.w3.org/2000/svg"><title>YouTube</title><path d="M33.819 3.748a4.281 4.281 0 0 0-3.012-3.031C28.152 0 17.5 0 17.5 0s-10.652 0-13.309 0.717A4.282 4.282 0 0 0 1.181 3.748C0.469 6.422 0.469 12 0.469 12s0 5.578 0.712 8.252a4.281 4.281 0 0 0 3.012 3.031c2.655 0.717 13.307 0.717 13.307 0.717s10.652 0 13.309-0.717a4.279 4.279 0 0 0 3.011-3.031C34.531 17.578 34.531 12 34.531 12s0-5.578-0.712-8.252zM14.016 17.064V6.936L22.919 12l-8.903 5.064z"/></svg>