<svg fill="#0B5CFF" role="img" viewBox="0 0 106 24" xmlns="http://www.w3.org/2000/svg"><title>Zoom</title><path d="M22.362 23.648H3.496a3.254 3.254 0 0 1-3.017-2.014 3.254 3.254 0 0 1 0.704-3.553L14.257 5.007H4.89A4.661 4.661 0 0 1 0.229 0.345h17.401c1.324 0 2.507 0.792 3.017 2.014a3.254 3.254 0 0 1-0.708 3.554L6.869 18.991h10.836c2.573 0 4.661 2.089 4.661 4.662zM105.771 9.088c0-5.013-4.077-9.085-9.085-9.086-2.683 0-5.092 1.165-6.759 3.017a9.063 9.063 0 0 0-6.755-3.017c-5.013 0-9.085 4.072-9.085 9.086v14.56a4.661 4.661 0 0 0 4.661-4.661v-9.899a4.415 4.415 0 0 1 8.852 0v9.899c0 2.577 2.084 4.661 4.662 4.661v-14.56a4.415 4.415 0 0 1 8.848 0v9.899c0 2.577 2.089 4.661 4.661 4.661zM71.756 11.999a11.997 11.997 0 1 1-23.998 0 11.997 11.997 0 0 1 23.998 0z m-4.662 0a7.34 7.34 0 1 0-14.679 0 7.34 7.34 0 0 0 14.679 0z m-21.196 0a11.997 11.997 0 1 1-24.002 0 11.997 11.997 0 0 1 23.997 0z m-4.662 0a7.34 7.34 0 1 0-14.679 0 7.34 7.34 0 0 0 14.679 0z"/></svg>